<?xml version="1.0" encoding="UTF-8" standalone="no"?>
<!-- Created with Inkscape (http://www.inkscape.org/) -->

<svg
   width="512"
   height="48"
   viewBox="0 0 135.46666 12.7"
   version="1.1"
   id="svg5"
   xmlns="http://www.w3.org/2000/svg"
   xmlns:svg="http://www.w3.org/2000/svg">
  <defs
     id="defs2" />
  <g
     id="layer1">
    <g
       aria-label="TooB Graphic EQ"
       id="text236"
       style="font-style:italic;font-weight:bold;font-size:5.99722px;font-family:Timana;-inkscape-font-specification:'Timana Bold Italic';fill:#686868;stroke:#7f7f7f;stroke-width:0.285001;stop-color:#000000">
      <path
         d="M 12.022963,5.7265975 12.163523,4.93302 h 3.461286 l -0.137632,0.7935775 h -1.24454 L 13.64233,9.1966686 h -1.004418 l 0.603236,-3.4700711 z"
         style="font-weight:900;font-family:Roboto;-inkscape-font-specification:'Roboto, Heavy Italic';fill:#e0e0e0;fill-opacity:0.752941;stroke:none;stroke-width:0.285"
         id="path394" />
      <path
         d="m 14.804876,7.6622237 0.0059,-0.061495 q 0.07321,-0.6852292 0.512458,-1.1654754 0.439249,-0.4802461 1.162547,-0.4656044 0.694014,0.011713 1.021987,0.4861028 0.330901,0.4714611 0.272335,1.1215504 -0.06442,0.7232975 -0.512458,1.2094003 Q 16.819568,9.2698769 16.09627,9.2552352 15.408112,9.2435219 15.077211,8.7779174 14.74631,8.3093846 14.804876,7.6622237 Z m 0.957564,0.3543279 q 0.0059,0.1932698 0.09078,0.336758 0.08492,0.1405598 0.304546,0.1464165 0.571024,0.014642 0.658874,-0.922424 0.01171,-0.1581298 0.0059,-0.354328 -0.0088,-0.1961981 -0.09371,-0.3426146 -0.08492,-0.1464165 -0.304546,-0.1522731 -0.24598,-0.00586 -0.389468,0.1581298 -0.143488,0.1610581 -0.216696,0.4597478 -0.07321,0.2957613 -0.05564,0.6705876 z"
         style="font-weight:900;font-family:Roboto;-inkscape-font-specification:'Roboto, Heavy Italic';fill:#e0e0e0;fill-opacity:0.752941;stroke:none;stroke-width:0.285"
         id="path396" />
      <path
         d="m 18.072893,7.6622237 0.0059,-0.061495 q 0.07321,-0.6852292 0.512458,-1.1654754 0.43925,-0.4802461 1.162547,-0.4656044 0.694015,0.011713 1.021987,0.4861028 0.330902,0.4714611 0.272335,1.1215504 -0.06442,0.7232975 -0.512458,1.2094003 Q 20.087584,9.2698769 19.364286,9.2552352 18.676129,9.2435219 18.345228,8.7779174 18.014326,8.3093846 18.072893,7.6622237 Z m 0.957564,0.3543279 q 0.0059,0.1932698 0.09078,0.336758 0.08492,0.1405598 0.304546,0.1464165 0.571025,0.014642 0.658875,-0.922424 0.01171,-0.1581298 0.0059,-0.354328 -0.0088,-0.1961981 -0.09371,-0.3426146 -0.08492,-0.1464165 -0.304547,-0.1522731 -0.245979,-0.00586 -0.389468,0.1581298 -0.143488,0.1610581 -0.216696,0.4597478 -0.07321,0.2957613 -0.05564,0.6705876 z"
         style="font-weight:900;font-family:Roboto;-inkscape-font-specification:'Roboto, Heavy Italic';fill:#e0e0e0;fill-opacity:0.752941;stroke:none;stroke-width:0.285"
         id="path398" />
      <path
         d="m 24.644066,7.9111317 q -0.02928,0.4714612 -0.272335,0.7525808 -0.240123,0.2811197 -0.614949,0.4070379 -0.374826,0.1259182 -0.808219,0.1259182 h -1.721858 l 0.737939,-4.2636486 1.341175,0.00293 q 0.998561,0.00293 1.393885,0.4743895 0.207912,0.2459797 0.178628,0.6764443 -0.02343,0.3601846 -0.219624,0.5915226 -0.196198,0.2284098 -0.521243,0.363113 0.28112,0.096635 0.401181,0.3426146 0.12299,0.2459797 0.10542,0.5270994 z m -1.812636,-2.1845342 -0.172772,0.9839189 0.433393,0.00293 q 0.269406,-0.00293 0.494888,-0.1024916 0.22841,-0.099563 0.275263,-0.3982528 0.041,-0.2664781 -0.09663,-0.3689696 -0.137632,-0.1054199 -0.389468,-0.1142049 z m 0.825789,2.1728209 Q 23.695287,7.673937 23.604509,7.5363055 23.516659,7.3986739 23.282392,7.3869606 l -0.737939,-0.00293 -0.178628,1.0219872 0.597379,0.00293 q 0.251837,-0.00293 0.450963,-0.1229898 0.199127,-0.1200616 0.243052,-0.3865396 z"
         style="font-weight:900;font-family:Roboto;-inkscape-font-specification:'Roboto, Heavy Italic';fill:#e0e0e0;fill-opacity:0.752941;stroke:none;stroke-width:0.285"
         id="path400" />
      <path
         d="M 30.245961,6.9184278 29.970698,8.6724975 Q 29.674937,9.0151122 29.174192,9.138102 28.676376,9.2581636 28.251768,9.2523069 27.657317,9.2464502 27.300061,8.9536172 26.942805,8.6607842 26.805173,8.1922514 26.667542,7.7237186 26.734893,7.1849058 l 0.03221,-0.2342664 q 0.07614,-0.5534543 0.336758,-1.0307722 0.260621,-0.4773178 0.696942,-0.7672224 0.436322,-0.292833 1.039558,-0.2811197 1.431953,0.023427 1.522731,1.4583084 L 29.40553,6.3269051 Q 29.385032,6.0370004 29.259114,5.855444 29.136124,5.6709592 28.816936,5.6592459 28.474321,5.6446042 28.260553,5.8525157 28.046785,6.0604271 27.93258,6.3679018 q -0.111276,0.3045463 -0.152273,0.6149493 -0.041,0.3074746 -0.04685,0.4538911 -0.0059,0.1464165 0,0.3045464 0.0088,0.2957613 0.146416,0.5066011 0.137632,0.2079114 0.486103,0.2137681 0.354328,0.00586 0.623734,-0.1727715 l 0.131775,-0.6647309 h -0.694014 l 0.12299,-0.7057276 z"
         style="font-weight:900;font-family:Roboto;-inkscape-font-specification:'Roboto, Heavy Italic';fill:#e0e0e0;fill-opacity:0.752941;stroke:none;stroke-width:0.285"
         id="path402" />
      <path
         d="m 32.369,6.8920728 q -0.430465,-0.00586 -0.658875,0.292833 l -0.357256,2.0117628 h -0.963421 l 0.550526,-3.1684531 0.896069,-0.00293 -0.07321,0.4128946 q 0.131775,-0.2020548 0.307475,-0.3396863 0.1757,-0.1376315 0.427536,-0.1376315 0.125918,0 0.295761,0.040997 L 32.667689,6.9213561 Q 32.477348,6.8920728 32.369,6.8920728 Z"
         style="font-weight:900;font-family:Roboto;-inkscape-font-specification:'Roboto, Heavy Italic';fill:#e0e0e0;fill-opacity:0.752941;stroke:none;stroke-width:0.285"
         id="path404" />
      <path
         d="m 34.275343,9.1966686 q -0.041,-0.1229898 -0.03807,-0.2899047 -0.327973,0.3572563 -0.776007,0.3484713 -0.392397,-0.00586 -0.676445,-0.2635497 -0.281119,-0.257693 -0.263549,-0.6647309 0.01464,-0.4216795 0.254764,-0.6530176 0.243052,-0.2342664 0.59738,-0.3250447 0.357256,-0.090778 0.711584,-0.090778 l 0.322116,0.00586 0.03514,-0.1786282 q 0.02635,-0.1581298 -0.0205,-0.2899047 -0.04393,-0.1347031 -0.234266,-0.1405598 -0.31626,-0.00586 -0.389468,0.3484713 l -0.966349,0.00293 Q 32.849247,6.6373081 33.0718,6.40597 q 0.225481,-0.231338 0.553454,-0.3367579 0.327973,-0.1083482 0.650089,-0.099563 0.506602,0.00878 0.846288,0.301618 0.342614,0.2899046 0.292833,0.8287174 l -0.216697,1.3558168 -0.03807,0.3162597 q -0.0205,0.1991264 0.05857,0.3689696 l -0.0029,0.055638 z M 33.724817,8.5582927 q 0.295762,0.011713 0.518315,-0.2576931 l 0.09663,-0.5124578 -0.248908,-0.00293 q -0.222553,0.00586 -0.392397,0.1317749 -0.169843,0.1229898 -0.202054,0.3601846 -0.03514,0.2723347 0.228409,0.2811197 z"
         style="font-weight:900;font-family:Roboto;-inkscape-font-specification:'Roboto, Heavy Italic';fill:#e0e0e0;fill-opacity:0.752941;stroke:none;stroke-width:0.285"
         id="path406" />
      <path
         d="M 37.306165,9.2581636 Q 36.890342,9.2464502 36.635577,8.9301906 L 36.348601,10.414854 H 35.38518 l 0.761366,-4.3866385 0.887284,-0.00293 -0.04685,0.2986897 q 0.316259,-0.3601846 0.752581,-0.3543279 0.433392,0.00586 0.658874,0.257693 0.225481,0.2489081 0.292833,0.6178777 0.07028,0.3660412 0.03514,0.7232975 -0.143488,1.0600555 -0.717441,1.4875917 -0.286976,0.2137681 -0.702799,0.2020548 z m 0.146416,-2.5271489 q -0.301618,-0.014642 -0.503673,0.248908 l -0.225481,1.259182 q 0.09663,0.2518364 0.401181,0.257693 0.301618,0.00878 0.468533,-0.292833 0.166915,-0.3045463 0.187413,-0.9663489 0.0029,-0.1932698 -0.06442,-0.345543 -0.06442,-0.1522731 -0.26355,-0.1610581 z"
         style="font-weight:900;font-family:Roboto;-inkscape-font-specification:'Roboto, Heavy Italic';fill:#e0e0e0;fill-opacity:0.752941;stroke:none;stroke-width:0.285"
         id="path408" />
      <path
         d="m 40.667889,6.7310147 q -0.260621,-0.00586 -0.459748,0.1874131 l -0.404109,2.2782408 h -0.963421 l 0.781864,-4.497915 h 0.963421 l -0.327973,1.6720765 q 0.357256,-0.4099662 0.817004,-0.4041096 0.547598,0.011713 0.735011,0.3953246 0.190341,0.3836112 0.137631,0.8667857 l -0.327973,1.9678378 h -0.969277 l 0.33383,-1.9766228 Q 41.010504,7.017991 40.951937,6.8774312 40.896299,6.7368713 40.667889,6.7310147 Z"
         style="font-weight:900;font-family:Roboto;-inkscape-font-specification:'Roboto, Heavy Italic';fill:#e0e0e0;fill-opacity:0.752941;stroke:none;stroke-width:0.285"
         id="path410" />
      <path
         d="m 42.828996,5.2287813 q -0.0059,-0.2284097 0.152273,-0.3631129 0.161058,-0.1347032 0.377755,-0.1376315 0.207911,-0.00293 0.368969,0.1229899 0.161059,0.1229898 0.163987,0.3426146 0.0059,0.2284097 -0.155202,0.3631129 -0.158129,0.1347032 -0.374826,0.1376315 -0.207911,0.00293 -0.368969,-0.1200615 -0.15813,-0.1259182 -0.163987,-0.345543 z m 0.878499,0.7994342 -0.547598,3.1684531 h -0.966349 l 0.550527,-3.1684531 z"
         style="font-weight:900;font-family:Roboto;-inkscape-font-specification:'Roboto, Heavy Italic';fill:#e0e0e0;fill-opacity:0.752941;stroke:none;stroke-width:0.285"
         id="path412" />
      <path
         d="m 45.171661,8.4967977 q 0.207912,0.00586 0.325045,-0.1142048 0.120061,-0.1229899 0.149345,-0.3162597 l 0.904854,-0.00293 Q 46.52455,8.6256443 46.10287,8.9477606 45.684119,9.2669485 45.145306,9.2552352 44.45422,9.2435219 44.146746,8.7691324 43.839271,8.2918146 43.894909,7.6534387 l 0.01171,-0.093707 q 0.07614,-0.6618026 0.497816,-1.1332637 0.421679,-0.4714612 1.127407,-0.4568195 0.571024,0.011713 0.881427,0.3631129 0.313332,0.3513996 0.301618,0.9107106 l -0.904854,-0.00293 q 0.0088,-0.1903414 -0.06442,-0.3455429 -0.07028,-0.1581299 -0.292833,-0.1669148 -0.22841,-0.00878 -0.3514,0.1347031 -0.120061,0.1405599 -0.169843,0.345543 -0.04978,0.2020548 -0.06735,0.3777546 l -0.0029,0.067352 -0.02343,0.3367579 q -0.0088,0.1961981 0.05564,0.3484713 0.06735,0.1522732 0.278191,0.1581298 z"
         style="font-weight:900;font-family:Roboto;-inkscape-font-specification:'Roboto, Heavy Italic';fill:#e0e0e0;fill-opacity:0.752941;stroke:none;stroke-width:0.285"
         id="path414" />
      <path
         d="M 48.29033,9.1966686 49.028269,4.93302 h 2.860979 l -0.137632,0.7935775 h -1.856561 l -0.15813,0.8989973 h 1.566657 L 51.171807,7.389889 H 49.608079 L 49.42945,8.4060195 h 1.850705 l -0.137631,0.7906491 z"
         style="font-weight:900;font-family:Roboto;-inkscape-font-specification:'Roboto, Heavy Italic';fill:#e0e0e0;fill-opacity:0.752941;stroke:none;stroke-width:0.285"
         id="path416" />
      <path
         d="M 54.966925,9.4719317 54.299266,9.9756044 53.549614,9.2405936 53.297777,9.2523069 Q 52.712111,9.2435219 52.357783,8.9389756 52.006384,8.6315009 51.868752,8.1541831 51.734049,7.673937 51.798472,7.1526942 l 0.0205,-0.1756998 q 0.07614,-0.5534544 0.345543,-1.0366288 0.272335,-0.4861028 0.717441,-0.7818642 0.448035,-0.2957613 1.054199,-0.284048 0.585666,0.011713 0.939994,0.319188 0.354328,0.3074746 0.49196,0.7847924 0.137631,0.4773179 0.07321,1.0014889 l -0.0205,0.1727715 Q 55.34468,7.6856503 55.0987,8.1453981 54.855649,8.6051459 54.395901,8.9038356 Z M 54.445683,6.44111 q -0.0059,-0.2986897 -0.125919,-0.5241711 -0.120061,-0.2254814 -0.442177,-0.2401231 -0.3514,-0.014642 -0.565168,0.1903415 -0.21084,0.2049831 -0.322116,0.5095294 -0.204984,0.5710244 -0.199127,1.3089636 0.0029,0.301618 0.12299,0.5300277 0.12299,0.2284098 0.448034,0.2401231 0.348472,0.014642 0.56224,-0.1932698 0.213768,-0.2108397 0.325044,-0.5183144 0.21084,-0.5827377 0.196199,-1.3031069 z"
         style="font-weight:900;font-family:Roboto;-inkscape-font-specification:'Roboto, Heavy Italic';fill:#e0e0e0;fill-opacity:0.752941;stroke:none;stroke-width:0.285"
         id="path418" />
    </g>
    <path
       id="path1348"
       style="color:#000000;fill:#e0e0e0;fill-opacity:0.752941;-inkscape-stroke:none"
       d="M 6.6569584,2.1171834 C 4.774717,2.1318994 3.2431785,3.6744673 3.243213,5.5567668 v 2.1109822 0.0062 0.00568 0.00982 c 0.00453,0.8890342 0.2392311,1.7354052 0.7462076,2.386935 0.1277885,0.164224 0.2744584,0.313735 0.4376994,0.445967 V 7.3390869 H 4.43074 V 5.5567668 c -2.28e-5,-1.2443843 0.9901438,-2.2443973 2.2344894,-2.254126 1.249133,-0.00958 2.258501,0.9812478 2.271179,2.2303548 v 0.023771 2.3435262 c 0,0.539163 -0.163809,0.8448933 -0.445451,1.074353 -0.281642,0.2294597 -0.736455,0.3787882 -1.343587,0.3787882 h -0.464596 v 2.225771 h 1.058358 v -1.221698 c 0.540406,-0.08223 1.101059,-0.137859 1.500167,-0.4630207 0.557114,-0.4538937 0.8805656,-1.1720775 0.8805656,-1.9941935 v -2.3435262 -0.03359 -0.00155 C 10.102686,3.6324092 8.5462194,2.1027009 6.6569584,2.1171834 Z" />
    <g
       aria-label="B"
       id="text1054"
       style="font-style:italic;font-weight:900;font-size:6.35px;font-family:Roboto;-inkscape-font-specification:'Roboto, Heavy Italic';fill:#e0e0e0;fill-opacity:0.752941;stroke-width:0.285001;stop-color:#000000"
       transform="translate(-3.9310512,-0.1615253)">
      <path
         id="path1085"
         style="font-style:normal;-inkscape-font-specification:'Roboto, Heavy';stroke-width:0.285"
         d="M 8.865092,5.8580404 V 8.9958333 11.74073 H 9.9533976 V 8.9958333 h 0.7441404 c 0.549837,-0.00413 0.964283,-0.116789 1.243335,-0.3379638 0.281119,-0.223242 0.42168,-0.5560389 0.42168,-0.9983887 0,-0.2439125 -0.06305,-0.4506186 -0.189136,-0.6201172 -0.12609,-0.1694982 -0.306958,-0.2852537 -0.542602,-0.3472656 0.208772,-0.078548 0.366902,-0.2005048 0.474389,-0.3658692 0.107487,-0.1653644 0.161231,-0.3648358 0.161231,-0.598413 0,-0.4051429 -0.151929,-0.7141686 -0.455786,-0.9270752 C 11.508859,4.5878339 11.18123,4.4813802 10.486698,4.4813802 H 9.9533976 c -1.0883054,0 -1.0883056,1.029605 -1.0883056,1.3766602 z m 1.0883056,-0.022757 c 0,-0.3308701 0.1341694,-0.4768142 0.3334184,-0.4952 l 0.199882,-0.018444 c 0.203885,-0.018814 0.420647,0.042375 0.530201,0.127124 0.109553,0.082682 0.164331,0.2191083 0.164331,0.4092774 0,0.1653644 -0.05064,0.2904216 -0.151929,0.3751709 -0.101285,0.08475 -0.270784,0.1281579 -0.508496,0.1302246 H 9.9533976 Z m 0,1.2412875 h 0.7627444 c 0.374137,0.00207 0.561206,0.1912032 0.561206,0.5674073 0,0.1632973 -0.05271,0.2904217 -0.15813,0.381372 -0.105419,0.088883 -0.256315,0.1333252 -0.452686,0.1333252 H 9.9533976 Z" />
    </g>
  </g>
</svg>
