<?xml version="1.0" encoding="UTF-8" standalone="no"?>
<!-- Created with Inkscape (http://www.inkscape.org/) -->

<svg
   width="256"
   height="48"
   viewBox="0 0 67.73333 12.7"
   version="1.1"
   id="svg5"
   xmlns="http://www.w3.org/2000/svg"
   xmlns:svg="http://www.w3.org/2000/svg">
  <defs
     id="defs2">
    <rect
       x="-14.38694"
       y="-5.4197793"
       width="35.01685"
       height="69.568077"
       id="rect503" />
  </defs>
  <g
     id="layer1">
    <g
       aria-label="TooB CE Chorus"
       id="text236"
       style="font-style:italic;font-weight:bold;font-size:5.64444px;line-height:0;font-family:Timana;-inkscape-font-specification:'Timana Bold Italic';fill:#686868;stroke:#7f7f7f;stroke-width:0.285001;stop-color:#000000">
      <path
         d="M 15.411192,5.2872374 H 14.242617 L 13.677622,8.5531855 H 12.732288 L 13.30004,5.2872374 h -1.149283 l 0.132291,-0.7468961 h 3.25768 z"
         style="font-weight:900;font-family:Roboto;-inkscape-font-specification:'Roboto, Heavy Italic';fill:#e0e0e0;fill-opacity:0.752941;stroke:none;stroke-width:0.285"
         id="path535" />
      <path
         d="m 16.386843,5.5159916 q 0.39963,0.00551 0.691774,0.2011934 0.292144,0.1929252 0.427192,0.5401906 0.137804,0.3472653 0.09922,0.7717008 l -0.0055,0.060634 Q 17.522345,7.7759725 17.089642,8.1976519 16.656938,8.6193312 16.020285,8.6083069 15.62341,8.6027948 15.334022,8.4126257 15.044634,8.2197005 14.904075,7.8751912 14.766271,7.5306819 14.804856,7.1090025 14.873758,6.3758868 15.306462,5.940427 15.741921,5.5049673 16.386843,5.5159916 Z m -0.675239,1.5930109 -0.0083,0.1626084 q -0.03858,0.6146046 0.374826,0.6256289 0.534679,0.016536 0.620117,-0.8681634 l 0.01102,-0.2508028 q 0.0055,-0.2480467 -0.09371,-0.3941186 -0.09646,-0.148828 -0.286632,-0.1543402 -0.250803,-0.00827 -0.413411,0.2067056 -0.159852,0.2122177 -0.20395,0.6724821 z"
         style="font-weight:900;font-family:Roboto;-inkscape-font-specification:'Roboto, Heavy Italic';fill:#e0e0e0;fill-opacity:0.752941;stroke:none;stroke-width:0.285"
         id="path537" />
      <path
         d="m 19.490182,5.5159916 q 0.399631,0.00551 0.691775,0.2011934 0.292144,0.1929252 0.427191,0.5401906 0.137804,0.3472653 0.09922,0.7717008 l -0.0055,0.060634 Q 20.625685,7.7759725 20.192981,8.1976519 19.760277,8.6193312 19.123624,8.6083069 18.72675,8.6027948 18.437362,8.4126257 18.147974,8.2197005 18.007414,7.8751912 17.86961,7.5306819 17.908195,7.1090025 q 0.0689,-0.7331157 0.501606,-1.1685755 0.43546,-0.4354597 1.080381,-0.4244354 z m -0.675238,1.5930109 -0.0083,0.1626084 q -0.03859,0.6146046 0.374826,0.6256289 0.534678,0.016536 0.620116,-0.8681634 l 0.01103,-0.2508028 q 0.0055,-0.2480467 -0.09371,-0.3941186 -0.09646,-0.148828 -0.286631,-0.1543402 -0.250803,-0.00827 -0.413412,0.2067056 -0.159852,0.2122177 -0.203949,0.6724821 z"
         style="font-weight:900;font-family:Roboto;-inkscape-font-specification:'Roboto, Heavy Italic';fill:#e0e0e0;fill-opacity:0.752941;stroke:none;stroke-width:0.285"
         id="path539" />
      <path
         d="m 20.89578,8.5531855 0.694531,-4.0128442 1.276063,0.00276 q 0.755164,0.00276 1.127234,0.2866317 0.37207,0.2838756 0.338997,0.7965055 -0.04134,0.633897 -0.694531,0.8984802 0.234267,0.082682 0.363802,0.3004121 0.132292,0.2149738 0.112999,0.5181419 -0.03859,0.5815317 -0.460264,0.8957242 -0.418923,0.3141925 -1.149283,0.3141925 z m 1.240234,-1.70601 -0.168121,0.9618699 0.564996,0.00276 q 0.264583,0 0.440971,-0.1295355 0.176389,-0.1322916 0.209462,-0.3500215 0.07717,-0.4602644 -0.352777,-0.482313 z m 0.107487,-0.6338971 0.443728,0.00276 q 0.614604,-0.01378 0.689018,-0.4712888 0.06615,-0.4519961 -0.468532,-0.4547522 l -0.501606,-0.00276 z"
         style="font-weight:900;font-family:Roboto;-inkscape-font-specification:'Roboto, Heavy Italic';fill:#e0e0e0;fill-opacity:0.752941;stroke:none;stroke-width:0.285"
         id="path541" />
      <path
         d="M 29.2081,7.1861726 Q 29.172271,7.607852 28.929737,7.9358248 28.689958,8.2637977 28.29584,8.4401864 27.904477,8.6165752 27.446969,8.6083069 26.818584,8.5945266 26.457538,8.203164 26.096492,7.8118015 26.06342,7.1420754 26.03861,6.6955914 26.15988,6.1691812 26.283903,5.642771 26.559511,5.2541645 q 0.278363,-0.3913625 0.65319,-0.5842877 0.377582,-0.1956813 0.824066,-0.1874131 0.655945,0.011024 1.036284,0.3941186 0.383094,0.3830944 0.416167,1.0555765 l -0.939821,-0.00276 q 0.0055,-0.3665579 -0.132292,-0.5236541 -0.137804,-0.1570962 -0.43546,-0.1681205 -0.74414,-0.024805 -0.906748,1.1575512 -0.07441,0.5346784 -0.07441,0.7634326 -0.01378,0.6779942 0.501605,0.6972868 0.333485,0.011024 0.531923,-0.1626084 0.198437,-0.1763888 0.253559,-0.4960934 z"
         style="font-weight:900;font-family:Roboto;-inkscape-font-specification:'Roboto, Heavy Italic';fill:#e0e0e0;fill-opacity:0.752941;stroke:none;stroke-width:0.285"
         id="path543" />
      <path
         d="m 32.181904,6.8526876 h -1.4745 l -0.16812,0.9563578 h 1.744595 l -0.129536,0.7441401 h -2.687172 l 0.69453,-4.0128442 h 2.692685 L 32.72485,5.2872374 h -1.747351 l -0.148828,0.8461148 h 1.477256 z"
         style="font-weight:900;font-family:Roboto;-inkscape-font-specification:'Roboto, Heavy Italic';fill:#e0e0e0;fill-opacity:0.752941;stroke:none;stroke-width:0.285"
         id="path545" />
      <path
         d="M 37.313716,7.1861726 Q 37.277887,7.607852 37.035352,7.9358248 36.795574,8.2637977 36.401455,8.4401864 36.010093,8.6165752 35.552584,8.6083069 34.9242,8.5945266 34.563154,8.203164 34.202108,7.8118015 34.169035,7.1420754 34.144231,6.6955914 34.265498,6.1691812 34.389521,5.642771 34.665129,5.2541645 34.943492,4.862802 35.318318,4.6698768 35.6959,4.4741955 36.142384,4.4824637 q 0.655946,0.011024 1.036284,0.3941186 0.383095,0.3830944 0.416168,1.0555765 l -0.939822,-0.00276 q 0.0055,-0.3665579 -0.132291,-0.5236541 -0.137804,-0.1570962 -0.43546,-0.1681205 -0.74414,-0.024805 -0.906749,1.1575512 -0.07441,0.5346784 -0.07441,0.7634326 -0.01378,0.6779942 0.501606,0.6972868 0.333485,0.011024 0.531922,-0.1626084 0.198438,-0.1763888 0.253559,-0.4960934 z"
         style="font-weight:900;font-family:Roboto;-inkscape-font-specification:'Roboto, Heavy Italic';fill:#e0e0e0;fill-opacity:0.752941;stroke:none;stroke-width:0.285"
         id="path547" />
      <path
         d="m 38.843336,5.8963298 q 0.333485,-0.3886064 0.768945,-0.3830943 0.44924,0.011024 0.664214,0.3279728 0.21773,0.3169486 0.157096,0.8598952 l -0.30868,1.852082 h -0.906748 l 0.311436,-1.8631063 q 0.01102,-0.093706 0.0055,-0.1763887 -0.01929,-0.2728514 -0.303168,-0.2811196 -0.245291,-0.00551 -0.43546,0.1791448 l -0.380338,2.1414698 h -0.906748 l 0.735871,-4.2333302 h 0.906749 z"
         style="font-weight:900;font-family:Roboto;-inkscape-font-specification:'Roboto, Heavy Italic';fill:#e0e0e0;fill-opacity:0.752941;stroke:none;stroke-width:0.285"
         id="path549" />
      <path
         d="m 42.387649,5.5159916 q 0.399631,0.00551 0.691774,0.2011934 0.292144,0.1929252 0.427192,0.5401906 0.137804,0.3472653 0.09922,0.7717008 l -0.0055,0.060634 Q 43.523165,7.7759729 43.090462,8.1976523 42.657758,8.6193316 42.021105,8.6083073 41.62423,8.6027973 41.334842,8.4126261 41.045455,8.2197009 40.904895,7.8751916 40.767091,7.5306823 40.805675,7.1090029 40.874575,6.3758872 41.307281,5.9404274 41.74274,5.5049677 42.387662,5.515992 Z m -0.675238,1.5930109 -0.0083,0.1626084 q -0.03858,0.6146046 0.374826,0.6256289 0.534679,0.016536 0.620117,-0.8681634 l 0.01102,-0.2508028 Q 42.715622,6.5302269 42.616403,6.384155 42.51994,6.235327 42.329771,6.2298148 42.078968,6.2215466 41.91636,6.4365204 41.756508,6.6487381 41.712411,7.1090025 Z"
         style="font-weight:900;font-family:Roboto;-inkscape-font-specification:'Roboto, Heavy Italic';fill:#e0e0e0;fill-opacity:0.752941;stroke:none;stroke-width:0.285"
         id="path551" />
      <path
         d="M 45.9044,6.4117157 Q 45.758328,6.3896671 45.62328,6.384155 45.215381,6.3731307 45.000408,6.6652746 l -0.336241,1.8879109 h -0.906749 l 0.518142,-2.9820724 0.846115,-0.00276 -0.0689,0.3913625 q 0.292144,-0.4519961 0.689019,-0.4519961 0.112999,0 0.281119,0.038585 z"
         style="font-weight:900;font-family:Roboto;-inkscape-font-specification:'Roboto, Heavy Italic';fill:#e0e0e0;fill-opacity:0.752941;stroke:none;stroke-width:0.285"
         id="path553" />
      <path
         d="M 47.698602,8.2279687 Q 47.365117,8.6220873 46.893828,8.611063 46.455613,8.6055509 46.232371,8.3051388 46.011885,8.0047267 46.061494,7.5003651 l 0.322461,-1.929252 h 0.906748 L 46.96273,7.5113894 q -0.0083,0.079926 0,0.1460719 0.01929,0.2259981 0.267339,0.2342663 0.286632,0.011024 0.487826,-0.2259981 l 0.369314,-2.0946164 h 0.91226 l -0.518142,2.9820724 h -0.843359 z"
         style="font-weight:900;font-family:Roboto;-inkscape-font-specification:'Roboto, Heavy Italic';fill:#e0e0e0;fill-opacity:0.752941;stroke:none;stroke-width:0.285"
         id="path555" />
      <path
         d="M 50.650358,7.6988024 Q 50.686187,7.5169015 50.369239,7.4259511 L 50.173557,7.3763417 Q 49.694001,7.2495623 49.470759,7.0208082 49.247517,6.792054 49.261297,6.4778615 q 0.01378,-0.4299476 0.380338,-0.6972868 0.369314,-0.2700953 0.89848,-0.2645831 0.526411,0.00551 0.851627,0.2673392 0.327973,0.261827 0.333485,0.705555 l -0.903992,-0.00276 q 0.01102,-0.3527775 -0.311436,-0.3527775 -0.137804,0 -0.256315,0.082682 -0.118512,0.079926 -0.14056,0.2149737 -0.04685,0.2232421 0.394118,0.3059243 0.383095,0.09095 0.592556,0.2122177 0.209462,0.1185112 0.319705,0.2949 0.110243,0.1763887 0.101975,0.4244354 -0.0083,0.2700953 -0.176389,0.482313 -0.16812,0.2122177 -0.487825,0.3389972 Q 50.540115,8.616571 50.168045,8.6083027 49.845585,8.6055427 49.567221,8.4732551 49.291614,8.3409677 49.134517,8.1149696 48.980177,7.8862155 48.974665,7.5913155 l 0.843359,0.00551 q 0.0055,0.3968747 0.396875,0.3913625 0.16812,0 0.286631,-0.074414 0.118512,-0.07717 0.148828,-0.2149738 z"
         style="font-weight:900;font-family:Roboto;-inkscape-font-specification:'Roboto, Heavy Italic';fill:#e0e0e0;fill-opacity:0.752941;stroke:none;stroke-width:0.285"
         id="path557" />
    </g>
    <path
       id="path1348"
       style="color:#000000;fill:#e0e0e0;fill-opacity:0.752941;-inkscape-stroke:none"
       d="M 6.1277914,2.1171834 C 4.24555,2.1318994 2.7140115,3.6744673 2.714046,5.5567668 v 2.1109822 0.0062 0.00568 0.00982 c 0.00453,0.8890342 0.2392311,1.7354052 0.7462076,2.386935 0.1277885,0.164224 0.2744584,0.313735 0.4376994,0.445967 V 7.3390869 h 0.00362 V 5.5567668 c -2.28e-5,-1.2443843 0.9901438,-2.2443973 2.2344894,-2.254126 1.2491321,-0.00958 2.2584998,0.9812478 2.2711778,2.2303548 v 0.023771 2.3435262 c 0,0.539163 -0.163809,0.8448933 -0.445451,1.074353 C 7.6801475,9.2041055 7.2253348,9.353434 6.6182031,9.353434 H 6.1536074 v 2.225771 H 7.2119648 V 10.357507 C 7.7523705,10.275277 8.3130232,10.219648 8.7121309,9.8944863 9.2692446,9.4405926 9.5926963,8.7224088 9.5926963,7.9002928 v -2.3435262 -0.03359 -0.00155 C 9.5735173,3.6324092 8.0170512,2.1027009 6.1277914,2.1171834 Z" />
    <g
       aria-label="B"
       id="text1054"
       style="font-style:italic;font-weight:900;font-size:6.35px;font-family:Roboto;-inkscape-font-specification:'Roboto, Heavy Italic';fill:#e0e0e0;fill-opacity:0.752941;stroke-width:0.285001;stop-color:#000000"
       transform="translate(-4.4602181,-0.1615253)">
      <path
         id="path1085"
         style="font-style:normal;-inkscape-font-specification:'Roboto, Heavy';stroke-width:0.285"
         d="M 8.865092,5.8580404 V 8.9958333 11.74073 H 9.9533976 V 8.9958333 h 0.7441404 c 0.549837,-0.00413 0.964283,-0.116789 1.243335,-0.3379638 0.281119,-0.223242 0.42168,-0.5560389 0.42168,-0.9983887 0,-0.2439125 -0.06305,-0.4506186 -0.189136,-0.6201172 -0.12609,-0.1694982 -0.306958,-0.2852537 -0.542602,-0.3472656 0.208772,-0.078548 0.366902,-0.2005048 0.474389,-0.3658692 0.107487,-0.1653644 0.161231,-0.3648358 0.161231,-0.598413 0,-0.4051429 -0.151929,-0.7141686 -0.455786,-0.9270752 C 11.508859,4.5878339 11.18123,4.4813802 10.486698,4.4813802 H 9.9533976 c -1.0883054,0 -1.0883056,1.029605 -1.0883056,1.3766602 z m 1.0883056,-0.022757 c 0,-0.3308701 0.1341694,-0.4768142 0.3334184,-0.4952 l 0.199882,-0.018444 c 0.203885,-0.018814 0.420647,0.042375 0.530201,0.127124 0.109553,0.082682 0.164331,0.2191083 0.164331,0.4092774 0,0.1653644 -0.05064,0.2904216 -0.151929,0.3751709 -0.101285,0.08475 -0.270784,0.1281579 -0.508496,0.1302246 H 9.9533976 Z m 0,1.2412875 h 0.7627444 c 0.374137,0.00207 0.561206,0.1912032 0.561206,0.5674073 0,0.1632973 -0.05271,0.2904217 -0.15813,0.381372 -0.105419,0.088883 -0.256315,0.1333252 -0.452686,0.1333252 H 9.9533976 Z" />
    </g>
    <text
       xml:space="preserve"
       transform="scale(0.26458333)"
       id="text501"
       style="font-style:italic;font-weight:bold;font-size:22.6667px;line-height:0;font-family:Timana;-inkscape-font-specification:'Timana Bold Italic';white-space:pre;shape-inside:url(#rect503);display:inline;fill:#686868;stroke:#7f7f7f;stroke-width:1.07717;stop-color:#000000" />
  </g>
</svg>
