<?xml version="1.0" encoding="UTF-8" standalone="no"?>
<!-- Created with Inkscape (http://www.inkscape.org/) -->

<svg
   width="320"
   height="200"
   viewBox="0 0 84.666663 52.916667"
   version="1.1"
   id="svg5"
   inkscape:version="1.2.2 (b0a8486541, 2022-12-01)"
   sodipodi:docname="InkscapeVideoLogo.svg"
   inkscape:export-filename="VideoLogo.png"
   inkscape:export-xdpi="96"
   inkscape:export-ydpi="96"
   xmlns:inkscape="http://www.inkscape.org/namespaces/inkscape"
   xmlns:sodipodi="http://sodipodi.sourceforge.net/DTD/sodipodi-0.dtd"
   xmlns="http://www.w3.org/2000/svg"
   xmlns:svg="http://www.w3.org/2000/svg">
  <sodipodi:namedview
     id="namedview7"
     pagecolor="#2e2e2e"
     bordercolor="#000000"
     borderopacity="0.25"
     inkscape:showpageshadow="2"
     inkscape:pageopacity="0"
     inkscape:pagecheckerboard="0"
     inkscape:deskcolor="#d1d1d1"
     inkscape:document-units="px"
     showgrid="false"
     inkscape:zoom="1.1808742"
     inkscape:cx="-30.062474"
     inkscape:cy="-83.41278"
     inkscape:window-width="1867"
     inkscape:window-height="1011"
     inkscape:window-x="0"
     inkscape:window-y="0"
     inkscape:window-maximized="1"
     inkscape:current-layer="layer1" />
  <defs
     id="defs2" />
  <g
     inkscape:label="Layer 1"
     inkscape:groupmode="layer"
     id="layer1">
    <text
       xml:space="preserve"
       style="font-style:italic;font-weight:bold;font-size:12.2181px;font-family:Timana;-inkscape-font-specification:'Timana Bold Italic';fill:#686868;stroke:#7f7f7f;stroke-width:0.580632;stop-color:#000000"
       x="26.177843"
       y="26.924767"
       id="text236"><tspan
         sodipodi:role="line"
         id="tspan234"
         style="font-style:italic;font-variant:normal;font-weight:900;font-stretch:normal;font-size:12.2181px;font-family:Roboto;-inkscape-font-specification:'Roboto, Heavy Italic';font-variant-ligatures:normal;font-variant-caps:normal;font-variant-numeric:normal;font-variant-east-asian:normal;fill:#e0e0e0;fill-opacity:0.752941;stroke:none;stroke-width:0.580629"
         x="26.177843"
         y="26.924767">ToobAmp</tspan></text>
    <path
       id="path1348"
       style="color:#000000;fill:#e0e0e0;fill-opacity:0.752941;stroke-width:2.0373;-inkscape-stroke:none"
       d="m 16.057057,12.501753 c -3.834683,0.02998 -6.9548814,3.172649 -6.9548111,7.007451 v 4.300697 0.01263 0.01157 0.02001 c 0.00923,1.811226 0.4873847,3.535535 1.5202461,4.862894 0.260343,0.334573 0.559153,0.639171 0.891723,0.908567 v -6.485253 h 0.0074 v -3.631115 c -4.6e-5,-2.53518 2.017217,-4.572503 4.552318,-4.592323 2.544854,-0.01952 4.601236,1.999093 4.627065,4.543894 v 0.04843 4.774457 c 0,1.098435 -0.333727,1.721299 -0.907516,2.188776 -0.573788,0.467477 -1.500377,0.771703 -2.737285,0.771703 h -0.94652 v 4.534556 h 2.156188 v -2.488961 c 1.100967,-0.167526 2.243183,-0.28086 3.056284,-0.94331 1.135007,-0.924716 1.793975,-2.38787 1.793975,-4.062764 v -4.774457 -0.06843 -0.0032 c -0.0391,-3.848858 -3.210082,-6.965327 -7.059067,-6.935822 z"
       sodipodi:nodetypes="ccccccscccccccsssccccsscccc" />
    <g
       aria-label="B"
       id="text1054"
       style="font-style:italic;font-weight:900;font-size:6.35px;font-family:Roboto;-inkscape-font-specification:'Roboto, Heavy Italic';fill:#e0e0e0;fill-opacity:0.752941;stroke-width:0.285001;stop-color:#000000"
       transform="matrix(2.0372966,0,0,2.0372966,-5.5138578,7.8593481)">
      <path
         id="path1085"
         style="font-style:normal;-inkscape-font-specification:'Roboto, Heavy';stroke-width:0.285"
         d="M 8.865092,5.8580404 V 8.9958333 11.74073 H 9.9533976 V 8.9958333 h 0.7441404 c 0.549837,-0.00413 0.964283,-0.116789 1.243335,-0.3379638 0.281119,-0.223242 0.42168,-0.5560389 0.42168,-0.9983887 0,-0.2439125 -0.06305,-0.4506186 -0.189136,-0.6201172 -0.12609,-0.1694982 -0.306958,-0.2852537 -0.542602,-0.3472656 0.208772,-0.078548 0.366902,-0.2005048 0.474389,-0.3658692 0.107487,-0.1653644 0.161231,-0.3648358 0.161231,-0.598413 0,-0.4051429 -0.151929,-0.7141686 -0.455786,-0.9270752 C 11.508859,4.5878339 11.18123,4.4813802 10.486698,4.4813802 H 9.9533976 c -1.0883054,0 -1.0883056,1.029605 -1.0883056,1.3766602 z m 1.0883056,-0.022757 c 0,-0.3308701 0.1341694,-0.4768142 0.3334184,-0.4952 l 0.199882,-0.018444 c 0.203885,-0.018814 0.420647,0.042375 0.530201,0.127124 0.109553,0.082682 0.164331,0.2191083 0.164331,0.4092774 0,0.1653644 -0.05064,0.2904216 -0.151929,0.3751709 -0.101285,0.08475 -0.270784,0.1281579 -0.508496,0.1302246 H 9.9533976 Z m 0,1.2412875 h 0.7627444 c 0.374137,0.00207 0.561206,0.1912032 0.561206,0.5674073 0,0.1632973 -0.05271,0.2904217 -0.15813,0.381372 -0.105419,0.088883 -0.256315,0.1333252 -0.452686,0.1333252 H 9.9533976 Z"
         sodipodi:nodetypes="cccccccsscssczccssscssccsccscscc" />
    </g>
    <text
       xml:space="preserve"
       style="font-style:italic;font-weight:bold;font-size:5.99722px;font-family:Timana;-inkscape-font-specification:'Timana Bold Italic';fill:#686868;stroke:#7f7f7f;stroke-width:0.285001;stop-color:#000000"
       x="35.02216"
       y="37.442314"
       id="text445"><tspan
         sodipodi:role="line"
         id="tspan443"
         style="font-style:italic;font-variant:normal;font-weight:900;font-stretch:normal;font-size:5.99722px;font-family:Roboto;-inkscape-font-specification:'Roboto, Heavy Italic';font-variant-ligatures:normal;font-variant-caps:normal;font-variant-numeric:normal;font-variant-east-asian:normal;fill:#e0e0e0;fill-opacity:0.752941;stroke:none;stroke-width:0.285"
         x="35.02216"
         y="37.442314">Demo Track</tspan></text>
  </g>
</svg>
